<svg width="18" height="18" viewBox="0 0 18 18" fill="none" xmlns="http://www.w3.org/2000/svg">
<g clip-path="url(#clip0)">
<path d="M13.5292 6.35279C13.5046 6.35279 1.26904 6.35279 1.26904 6.35279L3.8469 3.4634C4.01407 3.27602 3.99769 2.98862 3.81031 2.82145C3.62299 2.65432 3.33552 2.67063 3.16835 2.85805L0.265087 6.11211C-0.0885487 6.5086 -0.0885135 7.10639 0.265123 7.50278L3.16839 10.7569C3.25825 10.8576 3.38274 10.9089 3.50779 10.9089C3.61551 10.9089 3.72361 10.8708 3.81034 10.7935C3.99772 10.6263 4.01407 10.3389 3.84694 10.1515L1.26908 7.2621C1.26908 7.2621 13.5046 7.2621 13.5292 7.2621C15.493 7.2621 17.0905 8.85974 17.0905 10.8234C17.0905 12.7871 15.4929 14.3847 13.5292 14.3847H11.3643C11.1132 14.3847 10.9096 14.5883 10.9096 14.8394C10.9096 15.0905 11.1132 15.2941 11.3643 15.2941H13.5292C15.9943 15.2941 17.9999 13.2886 17.9999 10.8234C17.9998 8.3583 15.9943 6.35279 13.5292 6.35279Z" fill="#4671C6"/>
</g>
<defs>
<clipPath id="clip0">
<rect width="18" height="18" fill="white"/>
</clipPath>
</defs>
</svg>
