<svg width="30" height="30" viewBox="0 0 30 30" fill="none" xmlns="http://www.w3.org/2000/svg">
<path d="M30 15C30 23.2843 23.2843 30 15 30C6.71573 30 0 23.2843 0 15C0 6.71573 6.71573 0 15 0C23.2843 0 30 6.71573 30 15Z" fill="#3762CC" fill-opacity="0.58"/>
<path d="M18.6282 14.5717L13.2318 9.17714C12.995 8.94095 12.6114 8.94095 12.374 9.17714C12.1372 9.41333 12.1372 9.79697 12.374 10.0332L17.3423 14.9997L12.3746 19.9662C12.1378 20.2024 12.1378 20.586 12.3746 20.8228C12.6114 21.059 12.9956 21.059 13.2324 20.8228L18.6288 15.4283C18.862 15.1945 18.862 14.8048 18.6282 14.5717Z" fill="white"/>
</svg>
